<mxfile host="app.diagrams.net" modified="2022-12-08T04:12:11.248Z" agent="5.0 (Macintosh; Intel Mac OS X 10_15_7) AppleWebKit/605.1.15 (KHTML, like Gecko) Version/16.1 Safari/605.1.15" version="20.6.0" etag="AMi4VVMqhz3ARAzDLfxo" type="github" pages="4">
  <diagram id="eavNWvNgP0PMhij1oHIw" name="Страница 1">
    <mxGraphModel dx="1113" dy="731" grid="1" gridSize="10" guides="1" tooltips="1" connect="1" arrows="1" fold="1" page="1" pageScale="1" pageWidth="827" pageHeight="1169" math="0" shadow="0">
      <root>
        <mxCell id="0" />
        <mxCell id="1" parent="0" />
        <mxCell id="xWlOOJvm2tTgjyxbZQhH-10" style="edgeStyle=orthogonalEdgeStyle;rounded=0;orthogonalLoop=1;jettySize=auto;html=1;exitX=0;exitY=0.5;exitDx=0;exitDy=0;entryX=0.5;entryY=0;entryDx=0;entryDy=0;fontSize=16;" edge="1" parent="1" source="xWlOOJvm2tTgjyxbZQhH-1" target="xWlOOJvm2tTgjyxbZQhH-2">
          <mxGeometry relative="1" as="geometry" />
        </mxCell>
        <mxCell id="xWlOOJvm2tTgjyxbZQhH-11" style="edgeStyle=orthogonalEdgeStyle;rounded=0;orthogonalLoop=1;jettySize=auto;html=1;exitX=1;exitY=0.5;exitDx=0;exitDy=0;fontSize=16;" edge="1" parent="1" source="xWlOOJvm2tTgjyxbZQhH-1" target="xWlOOJvm2tTgjyxbZQhH-3">
          <mxGeometry relative="1" as="geometry" />
        </mxCell>
        <mxCell id="xWlOOJvm2tTgjyxbZQhH-1" value="Директор (1)" style="rounded=1;whiteSpace=wrap;html=1;fontSize=25;" vertex="1" parent="1">
          <mxGeometry x="320" y="240" width="160" height="40" as="geometry" />
        </mxCell>
        <mxCell id="xWlOOJvm2tTgjyxbZQhH-7" style="edgeStyle=orthogonalEdgeStyle;rounded=0;orthogonalLoop=1;jettySize=auto;html=1;exitX=0;exitY=0.5;exitDx=0;exitDy=0;entryX=0;entryY=0.5;entryDx=0;entryDy=0;fontSize=16;" edge="1" parent="1" source="xWlOOJvm2tTgjyxbZQhH-2" target="xWlOOJvm2tTgjyxbZQhH-4">
          <mxGeometry relative="1" as="geometry" />
        </mxCell>
        <mxCell id="xWlOOJvm2tTgjyxbZQhH-8" style="edgeStyle=orthogonalEdgeStyle;rounded=0;orthogonalLoop=1;jettySize=auto;html=1;exitX=0;exitY=0.5;exitDx=0;exitDy=0;entryX=0;entryY=0.5;entryDx=0;entryDy=0;fontSize=16;" edge="1" parent="1" source="xWlOOJvm2tTgjyxbZQhH-2" target="xWlOOJvm2tTgjyxbZQhH-5">
          <mxGeometry relative="1" as="geometry" />
        </mxCell>
        <mxCell id="xWlOOJvm2tTgjyxbZQhH-9" style="edgeStyle=orthogonalEdgeStyle;rounded=0;orthogonalLoop=1;jettySize=auto;html=1;exitX=0;exitY=0.5;exitDx=0;exitDy=0;entryX=0;entryY=0.5;entryDx=0;entryDy=0;fontSize=16;" edge="1" parent="1" source="xWlOOJvm2tTgjyxbZQhH-2" target="xWlOOJvm2tTgjyxbZQhH-6">
          <mxGeometry relative="1" as="geometry" />
        </mxCell>
        <mxCell id="xWlOOJvm2tTgjyxbZQhH-21" style="edgeStyle=orthogonalEdgeStyle;rounded=0;orthogonalLoop=1;jettySize=auto;html=1;exitX=0;exitY=0.5;exitDx=0;exitDy=0;entryX=0;entryY=0.5;entryDx=0;entryDy=0;fontSize=16;" edge="1" parent="1" source="xWlOOJvm2tTgjyxbZQhH-2" target="xWlOOJvm2tTgjyxbZQhH-20">
          <mxGeometry relative="1" as="geometry" />
        </mxCell>
        <mxCell id="xWlOOJvm2tTgjyxbZQhH-2" value="Организационный&lt;br style=&quot;font-size: 16px;&quot;&gt;отдел" style="rounded=1;whiteSpace=wrap;html=1;fontSize=16;" vertex="1" parent="1">
          <mxGeometry x="200" y="320" width="160" height="80" as="geometry" />
        </mxCell>
        <mxCell id="xWlOOJvm2tTgjyxbZQhH-15" style="edgeStyle=orthogonalEdgeStyle;rounded=0;orthogonalLoop=1;jettySize=auto;html=1;exitX=1;exitY=0.5;exitDx=0;exitDy=0;entryX=1;entryY=0.5;entryDx=0;entryDy=0;fontSize=16;" edge="1" parent="1" source="xWlOOJvm2tTgjyxbZQhH-3" target="xWlOOJvm2tTgjyxbZQhH-12">
          <mxGeometry relative="1" as="geometry" />
        </mxCell>
        <mxCell id="xWlOOJvm2tTgjyxbZQhH-16" style="edgeStyle=orthogonalEdgeStyle;rounded=0;orthogonalLoop=1;jettySize=auto;html=1;exitX=1;exitY=0.5;exitDx=0;exitDy=0;entryX=1;entryY=0.5;entryDx=0;entryDy=0;fontSize=16;" edge="1" parent="1" source="xWlOOJvm2tTgjyxbZQhH-3" target="xWlOOJvm2tTgjyxbZQhH-13">
          <mxGeometry relative="1" as="geometry" />
        </mxCell>
        <mxCell id="xWlOOJvm2tTgjyxbZQhH-3" value="Технические отделы" style="rounded=1;whiteSpace=wrap;html=1;fontSize=16;" vertex="1" parent="1">
          <mxGeometry x="480" y="320" width="160" height="80" as="geometry" />
        </mxCell>
        <mxCell id="xWlOOJvm2tTgjyxbZQhH-4" value="бухгалтер (1)" style="rounded=1;whiteSpace=wrap;html=1;fontSize=16;" vertex="1" parent="1">
          <mxGeometry x="200" y="440" width="160" height="40" as="geometry" />
        </mxCell>
        <mxCell id="xWlOOJvm2tTgjyxbZQhH-5" value="отдел кадров (1)" style="rounded=1;whiteSpace=wrap;html=1;fontSize=16;" vertex="1" parent="1">
          <mxGeometry x="200" y="520" width="160" height="40" as="geometry" />
        </mxCell>
        <mxCell id="xWlOOJvm2tTgjyxbZQhH-6" value="IT отдел (1)" style="rounded=1;whiteSpace=wrap;html=1;fontSize=16;" vertex="1" parent="1">
          <mxGeometry x="200" y="600" width="160" height="40" as="geometry" />
        </mxCell>
        <mxCell id="xWlOOJvm2tTgjyxbZQhH-12" value="отдел IT разработки (2)[+5]" style="rounded=1;whiteSpace=wrap;html=1;fontSize=16;" vertex="1" parent="1">
          <mxGeometry x="480" y="440" width="160" height="40" as="geometry" />
        </mxCell>
        <mxCell id="xWlOOJvm2tTgjyxbZQhH-13" value="отдел продаж (1)" style="rounded=1;whiteSpace=wrap;html=1;fontSize=16;" vertex="1" parent="1">
          <mxGeometry x="480" y="520" width="160" height="40" as="geometry" />
        </mxCell>
        <mxCell id="xWlOOJvm2tTgjyxbZQhH-20" value="офис менеджер (1)" style="rounded=1;whiteSpace=wrap;html=1;fontSize=16;" vertex="1" parent="1">
          <mxGeometry x="200" y="680" width="160" height="40" as="geometry" />
        </mxCell>
      </root>
    </mxGraphModel>
  </diagram>
  <diagram id="9BKfYJkGUv-IVZHO7EaS" name="Страница 2">
    <mxGraphModel dx="1351" dy="2056" grid="1" gridSize="10" guides="1" tooltips="1" connect="1" arrows="1" fold="1" page="1" pageScale="1" pageWidth="827" pageHeight="1169" math="0" shadow="0">
      <root>
        <mxCell id="0" />
        <mxCell id="1" parent="0" />
        <mxCell id="PtRjfQ-Xsc1v1Kzku1eO-6" style="edgeStyle=orthogonalEdgeStyle;rounded=0;orthogonalLoop=1;jettySize=auto;html=1;exitX=0;exitY=0.5;exitDx=0;exitDy=0;entryX=0.5;entryY=0;entryDx=0;entryDy=0;fontSize=16;" edge="1" parent="1" source="PtRjfQ-Xsc1v1Kzku1eO-4" target="PtRjfQ-Xsc1v1Kzku1eO-5">
          <mxGeometry relative="1" as="geometry" />
        </mxCell>
        <mxCell id="PtRjfQ-Xsc1v1Kzku1eO-8" style="edgeStyle=orthogonalEdgeStyle;rounded=0;orthogonalLoop=1;jettySize=auto;html=1;exitX=1;exitY=0.5;exitDx=0;exitDy=0;entryX=0.5;entryY=0;entryDx=0;entryDy=0;fontSize=16;" edge="1" parent="1" source="PtRjfQ-Xsc1v1Kzku1eO-4" target="PtRjfQ-Xsc1v1Kzku1eO-7">
          <mxGeometry relative="1" as="geometry" />
        </mxCell>
        <mxCell id="a21sQkwHZfW_VXbWcF6h-8" style="edgeStyle=orthogonalEdgeStyle;rounded=0;orthogonalLoop=1;jettySize=auto;html=1;exitX=0.5;exitY=0;exitDx=0;exitDy=0;entryX=0.5;entryY=1;entryDx=0;entryDy=0;fontSize=10;" edge="1" parent="1" source="PtRjfQ-Xsc1v1Kzku1eO-4" target="a21sQkwHZfW_VXbWcF6h-4">
          <mxGeometry relative="1" as="geometry" />
        </mxCell>
        <mxCell id="a21sQkwHZfW_VXbWcF6h-12" style="edgeStyle=orthogonalEdgeStyle;rounded=0;orthogonalLoop=1;jettySize=auto;html=1;exitX=0.5;exitY=0;exitDx=0;exitDy=0;fontSize=10;" edge="1" parent="1" source="PtRjfQ-Xsc1v1Kzku1eO-4" target="a21sQkwHZfW_VXbWcF6h-11">
          <mxGeometry relative="1" as="geometry" />
        </mxCell>
        <mxCell id="PtRjfQ-Xsc1v1Kzku1eO-4" value="" style="image;html=1;image=img/lib/clip_art/networking/Router_Icon_128x128.png;fontSize=16;" vertex="1" parent="1">
          <mxGeometry x="360" y="120" width="80" height="80" as="geometry" />
        </mxCell>
        <mxCell id="StF-tgHEQJlqDM06HHg6-1" style="edgeStyle=orthogonalEdgeStyle;rounded=0;orthogonalLoop=1;jettySize=auto;html=1;exitX=0.5;exitY=1;exitDx=0;exitDy=0;entryX=0.5;entryY=0;entryDx=0;entryDy=0;fontSize=25;" edge="1" parent="1" source="PtRjfQ-Xsc1v1Kzku1eO-5" target="PtRjfQ-Xsc1v1Kzku1eO-9">
          <mxGeometry relative="1" as="geometry">
            <Array as="points">
              <mxPoint x="240" y="320" />
              <mxPoint x="140" y="320" />
            </Array>
          </mxGeometry>
        </mxCell>
        <mxCell id="StF-tgHEQJlqDM06HHg6-2" style="edgeStyle=orthogonalEdgeStyle;rounded=0;orthogonalLoop=1;jettySize=auto;html=1;exitX=0.5;exitY=1;exitDx=0;exitDy=0;entryX=0.5;entryY=0;entryDx=0;entryDy=0;fontSize=25;" edge="1" parent="1" source="PtRjfQ-Xsc1v1Kzku1eO-5" target="Rw0lWtNW8VAhIUJcCgHu-4">
          <mxGeometry relative="1" as="geometry" />
        </mxCell>
        <mxCell id="StF-tgHEQJlqDM06HHg6-3" style="edgeStyle=orthogonalEdgeStyle;rounded=0;orthogonalLoop=1;jettySize=auto;html=1;exitX=0.5;exitY=1;exitDx=0;exitDy=0;entryX=0.5;entryY=0;entryDx=0;entryDy=0;fontSize=25;" edge="1" parent="1" source="PtRjfQ-Xsc1v1Kzku1eO-5" target="Rw0lWtNW8VAhIUJcCgHu-3">
          <mxGeometry relative="1" as="geometry">
            <Array as="points">
              <mxPoint x="240" y="320" />
              <mxPoint x="220" y="320" />
            </Array>
          </mxGeometry>
        </mxCell>
        <mxCell id="StF-tgHEQJlqDM06HHg6-4" style="edgeStyle=orthogonalEdgeStyle;rounded=0;orthogonalLoop=1;jettySize=auto;html=1;exitX=0.5;exitY=1;exitDx=0;exitDy=0;entryX=0.5;entryY=0;entryDx=0;entryDy=0;fontSize=25;" edge="1" parent="1" source="PtRjfQ-Xsc1v1Kzku1eO-5" target="Rw0lWtNW8VAhIUJcCgHu-2">
          <mxGeometry relative="1" as="geometry" />
        </mxCell>
        <mxCell id="StF-tgHEQJlqDM06HHg6-5" style="edgeStyle=orthogonalEdgeStyle;rounded=0;orthogonalLoop=1;jettySize=auto;html=1;exitX=0.5;exitY=1;exitDx=0;exitDy=0;entryX=0.5;entryY=0;entryDx=0;entryDy=0;fontSize=25;" edge="1" parent="1" source="PtRjfQ-Xsc1v1Kzku1eO-5" target="Rw0lWtNW8VAhIUJcCgHu-1">
          <mxGeometry relative="1" as="geometry">
            <Array as="points">
              <mxPoint x="240" y="320" />
              <mxPoint x="300" y="320" />
            </Array>
          </mxGeometry>
        </mxCell>
        <mxCell id="PtRjfQ-Xsc1v1Kzku1eO-5" value="" style="image;html=1;image=img/lib/clip_art/networking/Switch_128x128.png;fontSize=16;" vertex="1" parent="1">
          <mxGeometry x="200" y="200" width="80" height="80" as="geometry" />
        </mxCell>
        <mxCell id="StF-tgHEQJlqDM06HHg6-10" style="edgeStyle=orthogonalEdgeStyle;rounded=0;orthogonalLoop=1;jettySize=auto;html=1;exitX=0.5;exitY=1;exitDx=0;exitDy=0;entryX=0.5;entryY=0;entryDx=0;entryDy=0;fontSize=25;" edge="1" parent="1" source="PtRjfQ-Xsc1v1Kzku1eO-7" target="StF-tgHEQJlqDM06HHg6-7">
          <mxGeometry relative="1" as="geometry" />
        </mxCell>
        <mxCell id="StF-tgHEQJlqDM06HHg6-11" style="edgeStyle=orthogonalEdgeStyle;rounded=0;orthogonalLoop=1;jettySize=auto;html=1;exitX=0.5;exitY=1;exitDx=0;exitDy=0;entryX=0.5;entryY=0;entryDx=0;entryDy=0;fontSize=25;" edge="1" parent="1" source="PtRjfQ-Xsc1v1Kzku1eO-7" target="StF-tgHEQJlqDM06HHg6-9">
          <mxGeometry relative="1" as="geometry">
            <Array as="points">
              <mxPoint x="560" y="390" />
              <mxPoint x="560" y="390" />
            </Array>
          </mxGeometry>
        </mxCell>
        <mxCell id="StF-tgHEQJlqDM06HHg6-12" style="edgeStyle=orthogonalEdgeStyle;rounded=0;orthogonalLoop=1;jettySize=auto;html=1;exitX=0.5;exitY=1;exitDx=0;exitDy=0;entryX=0.5;entryY=0;entryDx=0;entryDy=0;fontSize=25;" edge="1" parent="1" source="PtRjfQ-Xsc1v1Kzku1eO-7" target="StF-tgHEQJlqDM06HHg6-8">
          <mxGeometry relative="1" as="geometry" />
        </mxCell>
        <mxCell id="fubikuoy2SGLW1ZEtXR--12" style="edgeStyle=orthogonalEdgeStyle;rounded=0;orthogonalLoop=1;jettySize=auto;html=1;exitX=0.5;exitY=1;exitDx=0;exitDy=0;entryX=0.5;entryY=0;entryDx=0;entryDy=0;fontSize=10;" edge="1" parent="1" source="PtRjfQ-Xsc1v1Kzku1eO-7" target="fubikuoy2SGLW1ZEtXR--1">
          <mxGeometry relative="1" as="geometry">
            <Array as="points">
              <mxPoint x="560" y="320" />
              <mxPoint x="660" y="320" />
            </Array>
          </mxGeometry>
        </mxCell>
        <mxCell id="fubikuoy2SGLW1ZEtXR--13" style="edgeStyle=orthogonalEdgeStyle;rounded=0;orthogonalLoop=1;jettySize=auto;html=1;exitX=0.5;exitY=1;exitDx=0;exitDy=0;entryX=0.5;entryY=0;entryDx=0;entryDy=0;fontSize=10;" edge="1" parent="1" source="PtRjfQ-Xsc1v1Kzku1eO-7" target="fubikuoy2SGLW1ZEtXR--2">
          <mxGeometry relative="1" as="geometry">
            <Array as="points">
              <mxPoint x="560" y="320" />
              <mxPoint x="740" y="320" />
            </Array>
          </mxGeometry>
        </mxCell>
        <mxCell id="PtRjfQ-Xsc1v1Kzku1eO-7" value="" style="image;html=1;image=img/lib/clip_art/networking/Switch_128x128.png;fontSize=16;" vertex="1" parent="1">
          <mxGeometry x="520" y="200" width="80" height="80" as="geometry" />
        </mxCell>
        <mxCell id="PtRjfQ-Xsc1v1Kzku1eO-9" value="1" style="ellipse;whiteSpace=wrap;html=1;aspect=fixed;fontSize=16;" vertex="1" parent="1">
          <mxGeometry x="120" y="440" width="40" height="40" as="geometry" />
        </mxCell>
        <mxCell id="Rw0lWtNW8VAhIUJcCgHu-1" value="5" style="ellipse;whiteSpace=wrap;html=1;aspect=fixed;fontSize=16;" vertex="1" parent="1">
          <mxGeometry x="280" y="440" width="40" height="40" as="geometry" />
        </mxCell>
        <mxCell id="Rw0lWtNW8VAhIUJcCgHu-2" value="4" style="ellipse;whiteSpace=wrap;html=1;aspect=fixed;fontSize=16;" vertex="1" parent="1">
          <mxGeometry x="240" y="360" width="40" height="40" as="geometry" />
        </mxCell>
        <mxCell id="Rw0lWtNW8VAhIUJcCgHu-3" value="3" style="ellipse;whiteSpace=wrap;html=1;aspect=fixed;fontSize=16;" vertex="1" parent="1">
          <mxGeometry x="200" y="440" width="40" height="40" as="geometry" />
        </mxCell>
        <mxCell id="Rw0lWtNW8VAhIUJcCgHu-4" value="2" style="ellipse;whiteSpace=wrap;html=1;aspect=fixed;fontSize=16;" vertex="1" parent="1">
          <mxGeometry x="160" y="360" width="40" height="40" as="geometry" />
        </mxCell>
        <mxCell id="StF-tgHEQJlqDM06HHg6-7" value="6" style="ellipse;whiteSpace=wrap;html=1;aspect=fixed;fontSize=16;" vertex="1" parent="1">
          <mxGeometry x="500" y="360" width="40" height="40" as="geometry" />
        </mxCell>
        <mxCell id="StF-tgHEQJlqDM06HHg6-8" value="8" style="ellipse;whiteSpace=wrap;html=1;aspect=fixed;fontSize=16;" vertex="1" parent="1">
          <mxGeometry x="580" y="360" width="40" height="40" as="geometry" />
        </mxCell>
        <mxCell id="StF-tgHEQJlqDM06HHg6-9" value="7" style="ellipse;whiteSpace=wrap;html=1;aspect=fixed;fontSize=16;" vertex="1" parent="1">
          <mxGeometry x="540" y="440" width="40" height="40" as="geometry" />
        </mxCell>
        <mxCell id="HPoiZKRHryMCSYoQe5v9-1" value="&lt;font style=&quot;font-size: 17px;&quot;&gt;1 - бухгалтер&lt;br style=&quot;font-size: 17px;&quot;&gt;&lt;/font&gt;&lt;div style=&quot;font-size: 17px;&quot;&gt;&lt;font style=&quot;font-size: 17px;&quot;&gt;2 - отдел кадров&lt;/font&gt;&lt;/div&gt;&lt;font style=&quot;font-size: 17px;&quot;&gt;3 - IT отдел&lt;br style=&quot;font-size: 17px;&quot;&gt;4 - директор&lt;br style=&quot;font-size: 17px;&quot;&gt;5 - офис менеджер&lt;/font&gt;" style="text;html=1;strokeColor=none;fillColor=none;align=left;verticalAlign=top;whiteSpace=wrap;rounded=0;fontSize=17;" vertex="1" parent="1">
          <mxGeometry x="120" y="540" width="200" height="120" as="geometry" />
        </mxCell>
        <mxCell id="exa1pLvG2xp5n-gIr9vX-1" value="&lt;font style=&quot;font-size: 17px;&quot;&gt;6 - разработчик 1&lt;br style=&quot;font-size: 17px;&quot;&gt;&lt;/font&gt;&lt;div style=&quot;font-size: 17px;&quot;&gt;&lt;font style=&quot;font-size: 17px;&quot;&gt;7 - разработки 2&lt;/font&gt;&lt;/div&gt;&lt;font style=&quot;font-size: 17px;&quot;&gt;8 - сотрудник отдела продаж&lt;br&gt;9 -13 новые разработчики (5)&lt;br&gt;&lt;/font&gt;" style="text;html=1;strokeColor=none;fillColor=none;align=left;verticalAlign=top;whiteSpace=wrap;rounded=0;fontSize=17;" vertex="1" parent="1">
          <mxGeometry x="520" y="540" width="240" height="120" as="geometry" />
        </mxCell>
        <mxCell id="a21sQkwHZfW_VXbWcF6h-3" value="Printer" style="html=1;strokeColor=none;fillColor=#0079D6;labelPosition=center;verticalLabelPosition=middle;verticalAlign=top;align=center;fontSize=12;outlineConnect=0;spacingTop=-6;fontColor=#FFFFFF;sketch=0;shape=mxgraph.sitemap.print;" vertex="1" parent="1">
          <mxGeometry x="120" y="-120" width="80" height="80" as="geometry" />
        </mxCell>
        <mxCell id="a21sQkwHZfW_VXbWcF6h-9" style="edgeStyle=orthogonalEdgeStyle;rounded=0;orthogonalLoop=1;jettySize=auto;html=1;exitX=0;exitY=0.5;exitDx=0;exitDy=0;entryX=1;entryY=0.5;entryDx=0;entryDy=0;entryPerimeter=0;fontSize=10;" edge="1" parent="1" source="a21sQkwHZfW_VXbWcF6h-4" target="a21sQkwHZfW_VXbWcF6h-7">
          <mxGeometry relative="1" as="geometry" />
        </mxCell>
        <mxCell id="a21sQkwHZfW_VXbWcF6h-10" style="edgeStyle=orthogonalEdgeStyle;rounded=0;orthogonalLoop=1;jettySize=auto;html=1;exitX=0;exitY=0.5;exitDx=0;exitDy=0;entryX=1;entryY=0.5;entryDx=0;entryDy=0;entryPerimeter=0;fontSize=10;" edge="1" parent="1" source="a21sQkwHZfW_VXbWcF6h-4" target="a21sQkwHZfW_VXbWcF6h-3">
          <mxGeometry relative="1" as="geometry" />
        </mxCell>
        <mxCell id="a21sQkwHZfW_VXbWcF6h-4" value="" style="image;html=1;image=img/lib/clip_art/networking/Print_Server_Wireless_128x128.png;fontSize=10;" vertex="1" parent="1">
          <mxGeometry x="280" width="80" height="80" as="geometry" />
        </mxCell>
        <mxCell id="a21sQkwHZfW_VXbWcF6h-7" value="Printer" style="html=1;strokeColor=none;fillColor=#0079D6;labelPosition=center;verticalLabelPosition=middle;verticalAlign=top;align=center;fontSize=12;outlineConnect=0;spacingTop=-6;fontColor=#FFFFFF;sketch=0;shape=mxgraph.sitemap.print;" vertex="1" parent="1">
          <mxGeometry x="120" width="80" height="80" as="geometry" />
        </mxCell>
        <mxCell id="a21sQkwHZfW_VXbWcF6h-11" value="" style="image;html=1;image=img/lib/clip_art/computers/Server_Rack_128x128.png;fontSize=10;" vertex="1" parent="1">
          <mxGeometry x="440" width="80" height="80" as="geometry" />
        </mxCell>
        <mxCell id="fubikuoy2SGLW1ZEtXR--1" value="9" style="rounded=0;whiteSpace=wrap;html=1;fontSize=16;" vertex="1" parent="1">
          <mxGeometry x="640" y="440" width="40" height="40" as="geometry" />
        </mxCell>
        <mxCell id="fubikuoy2SGLW1ZEtXR--2" value="13" style="rounded=0;whiteSpace=wrap;html=1;fontSize=16;" vertex="1" parent="1">
          <mxGeometry x="720" y="440" width="40" height="40" as="geometry" />
        </mxCell>
        <mxCell id="fubikuoy2SGLW1ZEtXR--3" value="" style="shape=waypoint;sketch=0;size=6;pointerEvents=1;points=[];fillColor=none;resizable=0;rotatable=0;perimeter=centerPerimeter;snapToPoint=1;fontSize=10;" vertex="1" parent="1">
          <mxGeometry x="670" y="440" width="40" height="40" as="geometry" />
        </mxCell>
        <mxCell id="fubikuoy2SGLW1ZEtXR--5" value="" style="shape=waypoint;sketch=0;size=6;pointerEvents=1;points=[];fillColor=none;resizable=0;rotatable=0;perimeter=centerPerimeter;snapToPoint=1;fontSize=10;" vertex="1" parent="1">
          <mxGeometry x="680" y="440" width="40" height="40" as="geometry" />
        </mxCell>
        <mxCell id="fubikuoy2SGLW1ZEtXR--6" value="" style="shape=waypoint;sketch=0;size=6;pointerEvents=1;points=[];fillColor=none;resizable=0;rotatable=0;perimeter=centerPerimeter;snapToPoint=1;fontSize=10;" vertex="1" parent="1">
          <mxGeometry x="690" y="440" width="40" height="40" as="geometry" />
        </mxCell>
        <mxCell id="fubikuoy2SGLW1ZEtXR--9" value="" style="shape=crossbar;whiteSpace=wrap;html=1;rounded=1;fontSize=10;" vertex="1" parent="1">
          <mxGeometry x="640" y="490" width="120" height="20" as="geometry" />
        </mxCell>
        <mxCell id="fubikuoy2SGLW1ZEtXR--11" value="5" style="text;html=1;align=center;verticalAlign=middle;resizable=0;points=[];autosize=1;strokeColor=none;fillColor=none;fontSize=10;" vertex="1" parent="1">
          <mxGeometry x="685" y="495" width="30" height="30" as="geometry" />
        </mxCell>
        <mxCell id="LskaAdMnC_WjDTOzpFJf-2" value="Логическая топология сети" style="text;strokeColor=none;fillColor=none;html=1;fontSize=24;fontStyle=1;verticalAlign=middle;align=center;" vertex="1" parent="1">
          <mxGeometry x="120" y="-190" width="640" height="40" as="geometry" />
        </mxCell>
      </root>
    </mxGraphModel>
  </diagram>
  <diagram id="Y0vx9TEOG4VTs1hsSGTS" name="Страница 3">
    <mxGraphModel dx="2404" dy="2204" grid="1" gridSize="10" guides="1" tooltips="1" connect="1" arrows="1" fold="1" page="1" pageScale="1" pageWidth="827" pageHeight="1169" math="0" shadow="0">
      <root>
        <mxCell id="0" />
        <mxCell id="1" parent="0" />
        <mxCell id="I0KUXzbicWh0Ul-1o_a0-17" value="" style="rounded=0;whiteSpace=wrap;html=1;fontSize=16;" vertex="1" parent="1">
          <mxGeometry x="-120" y="-140" width="1160" height="710" as="geometry" />
        </mxCell>
        <mxCell id="I0KUXzbicWh0Ul-1o_a0-14" value="" style="rounded=0;whiteSpace=wrap;html=1;fontSize=16;" vertex="1" parent="1">
          <mxGeometry x="790" y="320" width="160" height="200" as="geometry" />
        </mxCell>
        <mxCell id="I0KUXzbicWh0Ul-1o_a0-7" value="" style="rounded=0;whiteSpace=wrap;html=1;fontSize=16;" vertex="1" parent="1">
          <mxGeometry x="480" y="320" width="290" height="200" as="geometry" />
        </mxCell>
        <mxCell id="I0KUXzbicWh0Ul-1o_a0-4" value="" style="rounded=0;whiteSpace=wrap;html=1;fontSize=16;" vertex="1" parent="1">
          <mxGeometry x="220" y="320" width="200" height="200" as="geometry" />
        </mxCell>
        <mxCell id="I0KUXzbicWh0Ul-1o_a0-2" value="" style="rounded=0;whiteSpace=wrap;html=1;fontSize=16;" vertex="1" parent="1">
          <mxGeometry x="-80" y="320" width="280" height="200" as="geometry" />
        </mxCell>
        <mxCell id="4cmfIWpQnL4LAfwagnNE-1" style="edgeStyle=orthogonalEdgeStyle;rounded=0;orthogonalLoop=1;jettySize=auto;html=1;exitX=0;exitY=0.5;exitDx=0;exitDy=0;entryX=0.5;entryY=0;entryDx=0;entryDy=0;fontSize=16;" edge="1" parent="1" source="4cmfIWpQnL4LAfwagnNE-5" target="4cmfIWpQnL4LAfwagnNE-11">
          <mxGeometry relative="1" as="geometry" />
        </mxCell>
        <mxCell id="4cmfIWpQnL4LAfwagnNE-2" style="edgeStyle=orthogonalEdgeStyle;rounded=0;orthogonalLoop=1;jettySize=auto;html=1;exitX=1;exitY=0.5;exitDx=0;exitDy=0;entryX=0.5;entryY=0;entryDx=0;entryDy=0;fontSize=16;" edge="1" parent="1" source="4cmfIWpQnL4LAfwagnNE-5" target="4cmfIWpQnL4LAfwagnNE-17">
          <mxGeometry relative="1" as="geometry" />
        </mxCell>
        <mxCell id="4cmfIWpQnL4LAfwagnNE-3" style="edgeStyle=orthogonalEdgeStyle;rounded=0;orthogonalLoop=1;jettySize=auto;html=1;exitX=0.5;exitY=0;exitDx=0;exitDy=0;entryX=0.5;entryY=1;entryDx=0;entryDy=0;fontSize=10;" edge="1" parent="1" source="4cmfIWpQnL4LAfwagnNE-5" target="4cmfIWpQnL4LAfwagnNE-31">
          <mxGeometry relative="1" as="geometry" />
        </mxCell>
        <mxCell id="4cmfIWpQnL4LAfwagnNE-4" style="edgeStyle=orthogonalEdgeStyle;rounded=0;orthogonalLoop=1;jettySize=auto;html=1;exitX=0.5;exitY=0;exitDx=0;exitDy=0;fontSize=10;" edge="1" parent="1" source="4cmfIWpQnL4LAfwagnNE-5" target="4cmfIWpQnL4LAfwagnNE-33">
          <mxGeometry relative="1" as="geometry" />
        </mxCell>
        <mxCell id="4cmfIWpQnL4LAfwagnNE-5" value="" style="image;html=1;image=img/lib/clip_art/networking/Router_Icon_128x128.png;fontSize=16;" vertex="1" parent="1">
          <mxGeometry x="360" y="120" width="80" height="80" as="geometry" />
        </mxCell>
        <mxCell id="I0KUXzbicWh0Ul-1o_a0-9" style="edgeStyle=orthogonalEdgeStyle;rounded=0;orthogonalLoop=1;jettySize=auto;html=1;exitX=0;exitY=0.5;exitDx=0;exitDy=0;entryX=0.5;entryY=0;entryDx=0;entryDy=0;fontSize=16;" edge="1" parent="1" source="4cmfIWpQnL4LAfwagnNE-11" target="4cmfIWpQnL4LAfwagnNE-18">
          <mxGeometry relative="1" as="geometry" />
        </mxCell>
        <mxCell id="I0KUXzbicWh0Ul-1o_a0-10" style="edgeStyle=orthogonalEdgeStyle;rounded=0;orthogonalLoop=1;jettySize=auto;html=1;exitX=0;exitY=0.5;exitDx=0;exitDy=0;fontSize=16;" edge="1" parent="1" source="4cmfIWpQnL4LAfwagnNE-11" target="4cmfIWpQnL4LAfwagnNE-20">
          <mxGeometry relative="1" as="geometry" />
        </mxCell>
        <mxCell id="I0KUXzbicWh0Ul-1o_a0-11" style="edgeStyle=orthogonalEdgeStyle;rounded=0;orthogonalLoop=1;jettySize=auto;html=1;exitX=0;exitY=0.5;exitDx=0;exitDy=0;fontSize=16;" edge="1" parent="1" source="4cmfIWpQnL4LAfwagnNE-11" target="4cmfIWpQnL4LAfwagnNE-21">
          <mxGeometry relative="1" as="geometry" />
        </mxCell>
        <mxCell id="I0KUXzbicWh0Ul-1o_a0-12" style="edgeStyle=orthogonalEdgeStyle;rounded=0;orthogonalLoop=1;jettySize=auto;html=1;exitX=0;exitY=0.5;exitDx=0;exitDy=0;fontSize=16;" edge="1" parent="1" source="4cmfIWpQnL4LAfwagnNE-11" target="4cmfIWpQnL4LAfwagnNE-22">
          <mxGeometry relative="1" as="geometry" />
        </mxCell>
        <mxCell id="I0KUXzbicWh0Ul-1o_a0-13" style="edgeStyle=orthogonalEdgeStyle;rounded=0;orthogonalLoop=1;jettySize=auto;html=1;exitX=1;exitY=0.5;exitDx=0;exitDy=0;entryX=0.5;entryY=0;entryDx=0;entryDy=0;fontSize=16;" edge="1" parent="1" source="4cmfIWpQnL4LAfwagnNE-11" target="4cmfIWpQnL4LAfwagnNE-19">
          <mxGeometry relative="1" as="geometry" />
        </mxCell>
        <mxCell id="4cmfIWpQnL4LAfwagnNE-11" value="" style="image;html=1;image=img/lib/clip_art/networking/Switch_128x128.png;fontSize=16;" vertex="1" parent="1">
          <mxGeometry x="200" y="200" width="80" height="80" as="geometry" />
        </mxCell>
        <mxCell id="4cmfIWpQnL4LAfwagnNE-12" style="edgeStyle=orthogonalEdgeStyle;rounded=0;orthogonalLoop=1;jettySize=auto;html=1;exitX=0.5;exitY=1;exitDx=0;exitDy=0;entryX=0.5;entryY=0;entryDx=0;entryDy=0;fontSize=25;" edge="1" parent="1" source="4cmfIWpQnL4LAfwagnNE-17" target="4cmfIWpQnL4LAfwagnNE-23">
          <mxGeometry relative="1" as="geometry">
            <Array as="points">
              <mxPoint x="560" y="300" />
              <mxPoint x="520" y="300" />
            </Array>
          </mxGeometry>
        </mxCell>
        <mxCell id="4cmfIWpQnL4LAfwagnNE-15" style="edgeStyle=orthogonalEdgeStyle;rounded=0;orthogonalLoop=1;jettySize=auto;html=1;exitX=0.5;exitY=1;exitDx=0;exitDy=0;entryX=0.5;entryY=0;entryDx=0;entryDy=0;fontSize=10;" edge="1" parent="1" source="4cmfIWpQnL4LAfwagnNE-17" target="4cmfIWpQnL4LAfwagnNE-34">
          <mxGeometry relative="1" as="geometry">
            <Array as="points">
              <mxPoint x="560" y="300" />
              <mxPoint x="660" y="300" />
            </Array>
          </mxGeometry>
        </mxCell>
        <mxCell id="4cmfIWpQnL4LAfwagnNE-16" style="edgeStyle=orthogonalEdgeStyle;rounded=0;orthogonalLoop=1;jettySize=auto;html=1;exitX=0.5;exitY=1;exitDx=0;exitDy=0;entryX=0.5;entryY=0;entryDx=0;entryDy=0;fontSize=10;" edge="1" parent="1" source="4cmfIWpQnL4LAfwagnNE-17" target="4cmfIWpQnL4LAfwagnNE-35">
          <mxGeometry relative="1" as="geometry">
            <Array as="points">
              <mxPoint x="560" y="300" />
              <mxPoint x="740" y="300" />
            </Array>
          </mxGeometry>
        </mxCell>
        <mxCell id="I0KUXzbicWh0Ul-1o_a0-6" style="edgeStyle=orthogonalEdgeStyle;rounded=0;orthogonalLoop=1;jettySize=auto;html=1;exitX=0.5;exitY=1;exitDx=0;exitDy=0;entryX=0.5;entryY=0;entryDx=0;entryDy=0;fontSize=16;" edge="1" parent="1" source="4cmfIWpQnL4LAfwagnNE-17" target="4cmfIWpQnL4LAfwagnNE-25">
          <mxGeometry relative="1" as="geometry">
            <Array as="points">
              <mxPoint x="560" y="300" />
              <mxPoint x="580" y="300" />
            </Array>
          </mxGeometry>
        </mxCell>
        <mxCell id="I0KUXzbicWh0Ul-1o_a0-16" style="edgeStyle=orthogonalEdgeStyle;rounded=0;orthogonalLoop=1;jettySize=auto;html=1;exitX=0.5;exitY=1;exitDx=0;exitDy=0;fontSize=16;" edge="1" parent="1" source="4cmfIWpQnL4LAfwagnNE-17" target="4cmfIWpQnL4LAfwagnNE-24">
          <mxGeometry relative="1" as="geometry">
            <Array as="points">
              <mxPoint x="560" y="300" />
              <mxPoint x="870" y="300" />
            </Array>
          </mxGeometry>
        </mxCell>
        <mxCell id="4cmfIWpQnL4LAfwagnNE-17" value="" style="image;html=1;image=img/lib/clip_art/networking/Switch_128x128.png;fontSize=16;" vertex="1" parent="1">
          <mxGeometry x="520" y="200" width="80" height="80" as="geometry" />
        </mxCell>
        <mxCell id="4cmfIWpQnL4LAfwagnNE-18" value="1" style="ellipse;whiteSpace=wrap;html=1;aspect=fixed;fontSize=16;" vertex="1" parent="1">
          <mxGeometry x="-40" y="360" width="40" height="40" as="geometry" />
        </mxCell>
        <mxCell id="4cmfIWpQnL4LAfwagnNE-19" value="5" style="ellipse;whiteSpace=wrap;html=1;aspect=fixed;fontSize=16;" vertex="1" parent="1">
          <mxGeometry x="280" y="425" width="40" height="40" as="geometry" />
        </mxCell>
        <mxCell id="4cmfIWpQnL4LAfwagnNE-20" value="4" style="ellipse;whiteSpace=wrap;html=1;aspect=fixed;fontSize=16;" vertex="1" parent="1">
          <mxGeometry x="60" y="360" width="40" height="40" as="geometry" />
        </mxCell>
        <mxCell id="4cmfIWpQnL4LAfwagnNE-21" value="3" style="ellipse;whiteSpace=wrap;html=1;aspect=fixed;fontSize=16;" vertex="1" parent="1">
          <mxGeometry x="110" y="430" width="40" height="40" as="geometry" />
        </mxCell>
        <mxCell id="4cmfIWpQnL4LAfwagnNE-22" value="2" style="ellipse;whiteSpace=wrap;html=1;aspect=fixed;fontSize=16;" vertex="1" parent="1">
          <mxGeometry x="10" y="430" width="40" height="40" as="geometry" />
        </mxCell>
        <mxCell id="4cmfIWpQnL4LAfwagnNE-23" value="6" style="ellipse;whiteSpace=wrap;html=1;aspect=fixed;fontSize=16;" vertex="1" parent="1">
          <mxGeometry x="500" y="360" width="40" height="40" as="geometry" />
        </mxCell>
        <mxCell id="4cmfIWpQnL4LAfwagnNE-24" value="8" style="ellipse;whiteSpace=wrap;html=1;aspect=fixed;fontSize=16;" vertex="1" parent="1">
          <mxGeometry x="850" y="390" width="40" height="40" as="geometry" />
        </mxCell>
        <mxCell id="4cmfIWpQnL4LAfwagnNE-25" value="7" style="ellipse;whiteSpace=wrap;html=1;aspect=fixed;fontSize=16;" vertex="1" parent="1">
          <mxGeometry x="560" y="360" width="40" height="40" as="geometry" />
        </mxCell>
        <mxCell id="4cmfIWpQnL4LAfwagnNE-26" value="&lt;font style=&quot;font-size: 17px;&quot;&gt;1 - бухгалтер&lt;br style=&quot;font-size: 17px;&quot;&gt;&lt;/font&gt;&lt;div style=&quot;font-size: 17px;&quot;&gt;&lt;font style=&quot;font-size: 17px;&quot;&gt;2 - отдел кадров&lt;/font&gt;&lt;/div&gt;&lt;font style=&quot;font-size: 17px;&quot;&gt;3 - IT отдел&lt;br style=&quot;font-size: 17px;&quot;&gt;4 - директор&lt;br style=&quot;font-size: 17px;&quot;&gt;5 - офис менеджер&lt;/font&gt;" style="text;html=1;strokeColor=none;fillColor=none;align=left;verticalAlign=top;whiteSpace=wrap;rounded=0;fontSize=17;" vertex="1" parent="1">
          <mxGeometry x="-80" y="570" width="200" height="120" as="geometry" />
        </mxCell>
        <mxCell id="4cmfIWpQnL4LAfwagnNE-27" value="&lt;font style=&quot;font-size: 17px;&quot;&gt;6 - разработчик 1&lt;br style=&quot;font-size: 17px;&quot;&gt;&lt;/font&gt;&lt;div style=&quot;font-size: 17px;&quot;&gt;&lt;font style=&quot;font-size: 17px;&quot;&gt;7 - разработки 2&lt;/font&gt;&lt;/div&gt;&lt;font style=&quot;font-size: 17px;&quot;&gt;8 - сотрудник отдела продаж&lt;br&gt;9 -13 новые разработчики (5)&lt;br&gt;&lt;/font&gt;" style="text;html=1;strokeColor=none;fillColor=none;align=left;verticalAlign=top;whiteSpace=wrap;rounded=0;fontSize=17;" vertex="1" parent="1">
          <mxGeometry x="480" y="580" width="240" height="120" as="geometry" />
        </mxCell>
        <mxCell id="4cmfIWpQnL4LAfwagnNE-28" value="Printer" style="html=1;strokeColor=none;fillColor=#0079D6;labelPosition=center;verticalLabelPosition=middle;verticalAlign=top;align=center;fontSize=12;outlineConnect=0;spacingTop=-6;fontColor=#FFFFFF;sketch=0;shape=mxgraph.sitemap.print;" vertex="1" parent="1">
          <mxGeometry x="120" y="-120" width="80" height="80" as="geometry" />
        </mxCell>
        <mxCell id="4cmfIWpQnL4LAfwagnNE-29" style="edgeStyle=orthogonalEdgeStyle;rounded=0;orthogonalLoop=1;jettySize=auto;html=1;exitX=0;exitY=0.5;exitDx=0;exitDy=0;entryX=1;entryY=0.5;entryDx=0;entryDy=0;entryPerimeter=0;fontSize=10;" edge="1" parent="1" source="4cmfIWpQnL4LAfwagnNE-31" target="4cmfIWpQnL4LAfwagnNE-32">
          <mxGeometry relative="1" as="geometry" />
        </mxCell>
        <mxCell id="4cmfIWpQnL4LAfwagnNE-30" style="edgeStyle=orthogonalEdgeStyle;rounded=0;orthogonalLoop=1;jettySize=auto;html=1;exitX=0;exitY=0.5;exitDx=0;exitDy=0;entryX=1;entryY=0.5;entryDx=0;entryDy=0;entryPerimeter=0;fontSize=10;" edge="1" parent="1" source="4cmfIWpQnL4LAfwagnNE-31" target="4cmfIWpQnL4LAfwagnNE-28">
          <mxGeometry relative="1" as="geometry" />
        </mxCell>
        <mxCell id="4cmfIWpQnL4LAfwagnNE-31" value="" style="image;html=1;image=img/lib/clip_art/networking/Print_Server_Wireless_128x128.png;fontSize=10;" vertex="1" parent="1">
          <mxGeometry x="280" width="80" height="80" as="geometry" />
        </mxCell>
        <mxCell id="4cmfIWpQnL4LAfwagnNE-32" value="Printer" style="html=1;strokeColor=none;fillColor=#0079D6;labelPosition=center;verticalLabelPosition=middle;verticalAlign=top;align=center;fontSize=12;outlineConnect=0;spacingTop=-6;fontColor=#FFFFFF;sketch=0;shape=mxgraph.sitemap.print;" vertex="1" parent="1">
          <mxGeometry x="120" width="80" height="80" as="geometry" />
        </mxCell>
        <mxCell id="4cmfIWpQnL4LAfwagnNE-33" value="" style="image;html=1;image=img/lib/clip_art/computers/Server_Rack_128x128.png;fontSize=10;" vertex="1" parent="1">
          <mxGeometry x="440" width="80" height="80" as="geometry" />
        </mxCell>
        <mxCell id="4cmfIWpQnL4LAfwagnNE-34" value="9" style="rounded=0;whiteSpace=wrap;html=1;fontSize=16;" vertex="1" parent="1">
          <mxGeometry x="640" y="360" width="40" height="40" as="geometry" />
        </mxCell>
        <mxCell id="4cmfIWpQnL4LAfwagnNE-35" value="13" style="rounded=0;whiteSpace=wrap;html=1;fontSize=16;" vertex="1" parent="1">
          <mxGeometry x="720" y="360" width="40" height="40" as="geometry" />
        </mxCell>
        <mxCell id="4cmfIWpQnL4LAfwagnNE-36" value="" style="shape=waypoint;sketch=0;size=6;pointerEvents=1;points=[];fillColor=none;resizable=0;rotatable=0;perimeter=centerPerimeter;snapToPoint=1;fontSize=10;" vertex="1" parent="1">
          <mxGeometry x="670" y="360" width="40" height="40" as="geometry" />
        </mxCell>
        <mxCell id="4cmfIWpQnL4LAfwagnNE-37" value="" style="shape=waypoint;sketch=0;size=6;pointerEvents=1;points=[];fillColor=none;resizable=0;rotatable=0;perimeter=centerPerimeter;snapToPoint=1;fontSize=10;" vertex="1" parent="1">
          <mxGeometry x="680" y="360" width="40" height="40" as="geometry" />
        </mxCell>
        <mxCell id="4cmfIWpQnL4LAfwagnNE-38" value="" style="shape=waypoint;sketch=0;size=6;pointerEvents=1;points=[];fillColor=none;resizable=0;rotatable=0;perimeter=centerPerimeter;snapToPoint=1;fontSize=10;" vertex="1" parent="1">
          <mxGeometry x="690" y="360" width="40" height="40" as="geometry" />
        </mxCell>
        <mxCell id="4cmfIWpQnL4LAfwagnNE-39" value="" style="shape=crossbar;whiteSpace=wrap;html=1;rounded=1;fontSize=10;" vertex="1" parent="1">
          <mxGeometry x="640" y="410" width="120" height="20" as="geometry" />
        </mxCell>
        <mxCell id="4cmfIWpQnL4LAfwagnNE-40" value="5" style="text;html=1;align=center;verticalAlign=middle;resizable=0;points=[];autosize=1;strokeColor=none;fillColor=none;fontSize=10;" vertex="1" parent="1">
          <mxGeometry x="685" y="415" width="30" height="30" as="geometry" />
        </mxCell>
        <mxCell id="4cmfIWpQnL4LAfwagnNE-41" value="Физическая топология сети" style="text;strokeColor=none;fillColor=none;html=1;fontSize=24;fontStyle=1;verticalAlign=middle;align=center;" vertex="1" parent="1">
          <mxGeometry x="120" y="-190" width="640" height="40" as="geometry" />
        </mxCell>
        <mxCell id="I0KUXzbicWh0Ul-1o_a0-3" value="vlan1 192.168.1.1 - 1.4/24&amp;nbsp;" style="text;html=1;strokeColor=none;fillColor=none;align=left;verticalAlign=middle;whiteSpace=wrap;rounded=0;fontSize=16;" vertex="1" parent="1">
          <mxGeometry x="-80" y="490" width="200" height="30" as="geometry" />
        </mxCell>
        <mxCell id="I0KUXzbicWh0Ul-1o_a0-5" value="vlan2&amp;nbsp;192.168.2.1/24&amp;nbsp;" style="text;html=1;strokeColor=none;fillColor=none;align=left;verticalAlign=middle;whiteSpace=wrap;rounded=0;fontSize=16;" vertex="1" parent="1">
          <mxGeometry x="220" y="490" width="200" height="30" as="geometry" />
        </mxCell>
        <mxCell id="I0KUXzbicWh0Ul-1o_a0-8" value="&lt;div style=&quot;&quot;&gt;&lt;div style=&quot;&quot;&gt;&lt;div style=&quot;&quot;&gt;vlan3&amp;nbsp;&lt;span style=&quot;&quot;&gt;192.168.3.1 - 1.7/24&amp;nbsp;&lt;/span&gt;&lt;/div&gt;&lt;/div&gt;&lt;/div&gt;" style="text;html=1;strokeColor=none;fillColor=none;align=left;verticalAlign=middle;whiteSpace=wrap;rounded=0;fontSize=16;" vertex="1" parent="1">
          <mxGeometry x="480" y="490" width="320" height="30" as="geometry" />
        </mxCell>
        <mxCell id="I0KUXzbicWh0Ul-1o_a0-15" value="vlan4&amp;nbsp;&lt;span style=&quot;&quot;&gt;192.168.4.1/24&lt;/span&gt;" style="text;html=1;strokeColor=none;fillColor=none;align=left;verticalAlign=middle;whiteSpace=wrap;rounded=0;fontSize=16;" vertex="1" parent="1">
          <mxGeometry x="790" y="490" width="160" height="30" as="geometry" />
        </mxCell>
        <mxCell id="I0KUXzbicWh0Ul-1o_a0-18" value="vlan5&amp;nbsp;&lt;span style=&quot;&quot;&gt;192.168.5.1 - 5.9/.24&amp;nbsp;&lt;/span&gt;" style="text;html=1;strokeColor=none;fillColor=none;align=left;verticalAlign=middle;whiteSpace=wrap;rounded=0;fontSize=16;" vertex="1" parent="1">
          <mxGeometry x="-120" y="540" width="260" height="30" as="geometry" />
        </mxCell>
      </root>
    </mxGraphModel>
  </diagram>
  <diagram id="YEPXm26WjrOJwRoA18Cb" name="Страница 4">
    <mxGraphModel dx="2719" dy="2411" grid="1" gridSize="10" guides="1" tooltips="1" connect="1" arrows="1" fold="1" page="1" pageScale="1" pageWidth="827" pageHeight="1169" math="0" shadow="0">
      <root>
        <mxCell id="0" />
        <mxCell id="1" parent="0" />
        <mxCell id="EHmiGx8u_iwy5XrNuwgf-1" value="" style="rounded=0;whiteSpace=wrap;html=1;labelBackgroundColor=#FFFFFF;fontSize=9;fontColor=#CCFF99;" vertex="1" parent="1">
          <mxGeometry x="-320" y="-360" width="1440" height="800" as="geometry" />
        </mxCell>
        <mxCell id="BH-3Je2HWM4BqBeMA67B-1" value="" style="rounded=0;whiteSpace=wrap;html=1;labelBackgroundColor=#FFFFFF;fontSize=16;" vertex="1" parent="1">
          <mxGeometry x="-200" y="240" width="160" height="200" as="geometry" />
        </mxCell>
        <mxCell id="vcQZig9gvm6AIhMloOI_-4" value="" style="rounded=0;whiteSpace=wrap;html=1;fontSize=16;rotation=-90;" vertex="1" parent="1">
          <mxGeometry x="-360" y="280" width="200" height="120" as="geometry" />
        </mxCell>
        <mxCell id="vcQZig9gvm6AIhMloOI_-5" value="1.5 x 2,5" style="text;html=1;strokeColor=none;fillColor=none;align=center;verticalAlign=middle;whiteSpace=wrap;rounded=0;fontSize=16;" vertex="1" parent="1">
          <mxGeometry x="-300" y="325" width="80" height="30" as="geometry" />
        </mxCell>
        <mxCell id="vcQZig9gvm6AIhMloOI_-6" value="5 x 5" style="rounded=0;whiteSpace=wrap;html=1;fontSize=16;" vertex="1" parent="1">
          <mxGeometry x="720" y="-360" width="400" height="400" as="geometry" />
        </mxCell>
        <mxCell id="vcQZig9gvm6AIhMloOI_-8" value="5 x 5" style="rounded=0;whiteSpace=wrap;html=1;fontSize=16;" vertex="1" parent="1">
          <mxGeometry x="320" y="-360" width="400" height="400" as="geometry" />
        </mxCell>
        <mxCell id="vcQZig9gvm6AIhMloOI_-10" value="2 x 1" style="rounded=0;whiteSpace=wrap;html=1;fontSize=16;" vertex="1" parent="1">
          <mxGeometry x="840" y="-320" width="160" height="80" as="geometry" />
        </mxCell>
        <mxCell id="x1FesTeXJccqb-TsKIUG-5" value="1 x 2" style="rounded=0;whiteSpace=wrap;html=1;fontSize=16;rotation=90;" vertex="1" parent="1">
          <mxGeometry x="320" y="-100" width="160" height="80" as="geometry" />
        </mxCell>
        <mxCell id="x1FesTeXJccqb-TsKIUG-6" value="1 x 2" style="rounded=0;whiteSpace=wrap;html=1;fontSize=16;rotation=90;" vertex="1" parent="1">
          <mxGeometry x="320" y="-300" width="160" height="80" as="geometry" />
        </mxCell>
        <mxCell id="x1FesTeXJccqb-TsKIUG-7" value="1 x 2" style="rounded=0;whiteSpace=wrap;html=1;fontSize=16;rotation=90;" vertex="1" parent="1">
          <mxGeometry x="560" y="-300" width="160" height="80" as="geometry" />
        </mxCell>
        <mxCell id="x1FesTeXJccqb-TsKIUG-8" value="1 x 2" style="rounded=0;whiteSpace=wrap;html=1;fontSize=16;rotation=90;" vertex="1" parent="1">
          <mxGeometry x="560" y="-100" width="160" height="80" as="geometry" />
        </mxCell>
        <mxCell id="x1FesTeXJccqb-TsKIUG-9" value="2 x 1" style="rounded=0;whiteSpace=wrap;html=1;fontSize=16;rotation=0;" vertex="1" parent="1">
          <mxGeometry x="-200" y="360" width="160" height="80" as="geometry" />
        </mxCell>
        <mxCell id="AGbRpFvTUjzq6ebAXNWN-1" value="директор" style="text;html=1;strokeColor=none;fillColor=none;align=center;verticalAlign=middle;whiteSpace=wrap;rounded=0;fontSize=16;" vertex="1" parent="1">
          <mxGeometry x="890" y="-230" width="60" height="30" as="geometry" />
        </mxCell>
        <mxCell id="X34AfkPHHiRQKAnDyrfX-1" value="бухгалтер" style="text;html=1;strokeColor=none;fillColor=none;align=center;verticalAlign=middle;whiteSpace=wrap;rounded=0;fontSize=16;" vertex="1" parent="1">
          <mxGeometry x="370" y="-330" width="60" height="30" as="geometry" />
        </mxCell>
        <mxCell id="m5CwdLDDE_fJg19Dz7On-1" value="IT отдел" style="text;html=1;strokeColor=none;fillColor=none;align=center;verticalAlign=middle;whiteSpace=wrap;rounded=0;fontSize=16;" vertex="1" parent="1">
          <mxGeometry x="610" y="-330" width="60" height="30" as="geometry" />
        </mxCell>
        <mxCell id="playqD-NQ0L1dGgf7wcB-1" value="отдал кадров" style="text;html=1;strokeColor=none;fillColor=none;align=center;verticalAlign=middle;whiteSpace=wrap;rounded=0;fontSize=16;" vertex="1" parent="1">
          <mxGeometry x="370" y="-130" width="60" height="30" as="geometry" />
        </mxCell>
        <mxCell id="playqD-NQ0L1dGgf7wcB-2" value="офис менеджер" style="text;html=1;strokeColor=none;fillColor=none;align=center;verticalAlign=middle;whiteSpace=wrap;rounded=0;fontSize=16;" vertex="1" parent="1">
          <mxGeometry x="610" y="-130" width="60" height="30" as="geometry" />
        </mxCell>
        <mxCell id="bhAYxdVpt6L1nIL8nZjy-1" value="1 x 2" style="rounded=0;whiteSpace=wrap;html=1;fontSize=16;rotation=90;" vertex="1" parent="1">
          <mxGeometry x="-360" y="-320" width="160" height="80" as="geometry" />
        </mxCell>
        <mxCell id="bhAYxdVpt6L1nIL8nZjy-2" value="1 x 2" style="rounded=0;whiteSpace=wrap;html=1;fontSize=16;rotation=90;" vertex="1" parent="1">
          <mxGeometry x="-360" y="-160" width="160" height="80" as="geometry" />
        </mxCell>
        <mxCell id="bhAYxdVpt6L1nIL8nZjy-3" value="1 x 2" style="rounded=0;whiteSpace=wrap;html=1;fontSize=16;rotation=90;" vertex="1" parent="1">
          <mxGeometry x="-360" width="160" height="80" as="geometry" />
        </mxCell>
        <mxCell id="bhAYxdVpt6L1nIL8nZjy-6" value="1 x 2" style="rounded=0;whiteSpace=wrap;html=1;fontSize=16;rotation=90;" vertex="1" parent="1">
          <mxGeometry x="-120" y="-320" width="160" height="80" as="geometry" />
        </mxCell>
        <mxCell id="bhAYxdVpt6L1nIL8nZjy-7" value="1 x 2" style="rounded=0;whiteSpace=wrap;html=1;fontSize=16;rotation=90;" vertex="1" parent="1">
          <mxGeometry x="-120" y="-160" width="160" height="80" as="geometry" />
        </mxCell>
        <mxCell id="bhAYxdVpt6L1nIL8nZjy-8" value="1 x 2" style="rounded=0;whiteSpace=wrap;html=1;fontSize=16;rotation=90;" vertex="1" parent="1">
          <mxGeometry x="-120" width="160" height="80" as="geometry" />
        </mxCell>
        <mxCell id="bhAYxdVpt6L1nIL8nZjy-9" value="1 x 2" style="rounded=0;whiteSpace=wrap;html=1;fontSize=16;rotation=90;" vertex="1" parent="1">
          <mxGeometry x="160" y="-320" width="160" height="80" as="geometry" />
        </mxCell>
        <mxCell id="bhAYxdVpt6L1nIL8nZjy-11" value="" style="rounded=0;whiteSpace=wrap;html=1;labelBackgroundColor=#FFFFFF;fontSize=16;" vertex="1" parent="1">
          <mxGeometry x="281" width="39" height="40" as="geometry" />
        </mxCell>
        <mxCell id="bhAYxdVpt6L1nIL8nZjy-12" value="" style="rounded=0;whiteSpace=wrap;html=1;labelBackgroundColor=#FFFFFF;fontSize=16;" vertex="1" parent="1">
          <mxGeometry x="281" y="-40" width="39" height="40" as="geometry" />
        </mxCell>
        <mxCell id="bhAYxdVpt6L1nIL8nZjy-13" value="" style="rounded=0;whiteSpace=wrap;html=1;labelBackgroundColor=#FFFFFF;fontSize=16;" vertex="1" parent="1">
          <mxGeometry x="-279.5" y="400" width="39" height="40" as="geometry" />
        </mxCell>
        <mxCell id="bhAYxdVpt6L1nIL8nZjy-16" value="" style="rounded=0;whiteSpace=wrap;html=1;labelBackgroundColor=#FFFFFF;fontSize=16;" vertex="1" parent="1">
          <mxGeometry x="960" y="240" width="160" height="200" as="geometry" />
        </mxCell>
        <mxCell id="bhAYxdVpt6L1nIL8nZjy-17" value="" style="rounded=0;whiteSpace=wrap;html=1;labelBackgroundColor=#FFFFFF;fontSize=16;" vertex="1" parent="1">
          <mxGeometry x="800" y="240" width="160" height="200" as="geometry" />
        </mxCell>
        <mxCell id="bhAYxdVpt6L1nIL8nZjy-20" value="" style="endArrow=none;html=1;rounded=0;fontSize=16;entryX=0;entryY=0;entryDx=0;entryDy=0;" edge="1" parent="1" target="bhAYxdVpt6L1nIL8nZjy-17">
          <mxGeometry width="50" height="50" relative="1" as="geometry">
            <mxPoint x="-320" y="240" as="sourcePoint" />
            <mxPoint x="450" y="260" as="targetPoint" />
          </mxGeometry>
        </mxCell>
        <mxCell id="1MeRUyPHZE2vKVNbhPLM-1" value="&lt;span style=&quot;font-size: 17px; text-align: left; background-color: rgb(248, 249, 250);&quot;&gt;отдел продаж&lt;/span&gt;" style="text;html=1;strokeColor=none;fillColor=none;align=center;verticalAlign=middle;whiteSpace=wrap;rounded=0;labelBackgroundColor=#FFFFFF;fontSize=16;" vertex="1" parent="1">
          <mxGeometry x="-150" y="310" width="60" height="30" as="geometry" />
        </mxCell>
        <mxCell id="1MeRUyPHZE2vKVNbhPLM-4" value="серверная" style="text;html=1;strokeColor=none;fillColor=none;align=center;verticalAlign=middle;whiteSpace=wrap;rounded=0;labelBackgroundColor=#FFFFFF;fontSize=16;" vertex="1" parent="1">
          <mxGeometry x="-290" y="287.5" width="60" height="30" as="geometry" />
        </mxCell>
        <mxCell id="1MeRUyPHZE2vKVNbhPLM-5" value="туалет" style="text;html=1;strokeColor=none;fillColor=none;align=center;verticalAlign=middle;whiteSpace=wrap;rounded=0;labelBackgroundColor=#FFFFFF;fontSize=16;" vertex="1" parent="1">
          <mxGeometry x="840" y="325" width="60" height="30" as="geometry" />
        </mxCell>
        <mxCell id="1MeRUyPHZE2vKVNbhPLM-6" value="туалет" style="text;html=1;strokeColor=none;fillColor=none;align=center;verticalAlign=middle;whiteSpace=wrap;rounded=0;labelBackgroundColor=#FFFFFF;fontSize=16;" vertex="1" parent="1">
          <mxGeometry x="1020" y="325" width="60" height="30" as="geometry" />
        </mxCell>
        <mxCell id="1MeRUyPHZE2vKVNbhPLM-7" value="принтеры" style="text;html=1;strokeColor=none;fillColor=none;align=center;verticalAlign=middle;whiteSpace=wrap;rounded=0;labelBackgroundColor=#FFFFFF;fontSize=16;rotation=90;" vertex="1" parent="1">
          <mxGeometry x="240" y="-10" width="60" height="30" as="geometry" />
        </mxCell>
        <mxCell id="1MeRUyPHZE2vKVNbhPLM-9" value="Зона отдыха&amp;nbsp;" style="text;html=1;strokeColor=none;fillColor=none;align=center;verticalAlign=middle;whiteSpace=wrap;rounded=0;labelBackgroundColor=#FFFFFF;fontSize=16;" vertex="1" parent="1">
          <mxGeometry x="160" y="317.5" width="120" height="37.5" as="geometry" />
        </mxCell>
        <mxCell id="1MeRUyPHZE2vKVNbhPLM-10" value="кухня" style="text;html=1;strokeColor=none;fillColor=none;align=center;verticalAlign=middle;whiteSpace=wrap;rounded=0;labelBackgroundColor=#FFFFFF;fontSize=16;" vertex="1" parent="1">
          <mxGeometry x="600" y="322.5" width="120" height="37.5" as="geometry" />
        </mxCell>
        <mxCell id="1MeRUyPHZE2vKVNbhPLM-11" value="" style="endArrow=none;html=1;rounded=0;fontSize=16;" edge="1" parent="1">
          <mxGeometry width="50" height="50" relative="1" as="geometry">
            <mxPoint x="510" y="438.75" as="sourcePoint" />
            <mxPoint x="510" y="238.75" as="targetPoint" />
          </mxGeometry>
        </mxCell>
        <mxCell id="1MeRUyPHZE2vKVNbhPLM-14" value="" style="shape=waypoint;sketch=0;fillStyle=solid;size=6;pointerEvents=1;points=[];fillColor=none;resizable=0;rotatable=0;perimeter=centerPerimeter;snapToPoint=1;labelBackgroundColor=#FFFFFF;fontSize=16;" vertex="1" parent="1">
          <mxGeometry x="690" y="20" width="40" height="40" as="geometry" />
        </mxCell>
        <mxCell id="1MeRUyPHZE2vKVNbhPLM-15" value="switch 2" style="text;html=1;strokeColor=none;fillColor=none;align=center;verticalAlign=middle;whiteSpace=wrap;rounded=0;labelBackgroundColor=#FFFFFF;fontSize=16;" vertex="1" parent="1">
          <mxGeometry x="690" y="45" width="60" height="30" as="geometry" />
        </mxCell>
        <mxCell id="1MeRUyPHZE2vKVNbhPLM-16" value="" style="shape=waypoint;sketch=0;fillStyle=solid;size=6;pointerEvents=1;points=[];fillColor=none;resizable=0;rotatable=0;perimeter=centerPerimeter;snapToPoint=1;labelBackgroundColor=#FFFFFF;fontSize=16;" vertex="1" parent="1">
          <mxGeometry x="-340" y="220" width="40" height="40" as="geometry" />
        </mxCell>
        <mxCell id="1MeRUyPHZE2vKVNbhPLM-17" value="switch 1" style="text;html=1;strokeColor=none;fillColor=none;align=center;verticalAlign=middle;whiteSpace=wrap;rounded=0;labelBackgroundColor=#FFFFFF;fontSize=16;rotation=-90;" vertex="1" parent="1">
          <mxGeometry x="-330" y="190" width="60" height="30" as="geometry" />
        </mxCell>
        <mxCell id="x-fcVKMWKXttZ8fuD8AK-1" value="" style="endArrow=none;html=1;rounded=0;fontSize=16;entryX=1;entryY=0.5;entryDx=0;entryDy=0;fontColor=#CCFF99;labelBackgroundColor=#CCFF99;strokeColor=#004C99;strokeWidth=3;" edge="1" parent="1" source="1MeRUyPHZE2vKVNbhPLM-14" target="x1FesTeXJccqb-TsKIUG-5">
          <mxGeometry width="50" height="50" relative="1" as="geometry">
            <mxPoint x="380" y="170" as="sourcePoint" />
            <mxPoint x="430" y="120" as="targetPoint" />
            <Array as="points">
              <mxPoint x="710" y="40" />
              <mxPoint x="400" y="40" />
            </Array>
          </mxGeometry>
        </mxCell>
        <mxCell id="x-fcVKMWKXttZ8fuD8AK-2" value="" style="endArrow=none;html=1;rounded=0;labelBackgroundColor=#CCFF99;strokeColor=#33FF33;strokeWidth=3;fontSize=16;fontColor=#CCFF99;entryX=1;entryY=0.5;entryDx=0;entryDy=0;" edge="1" parent="1" source="vcQZig9gvm6AIhMloOI_-8" target="x1FesTeXJccqb-TsKIUG-8">
          <mxGeometry width="50" height="50" relative="1" as="geometry">
            <mxPoint x="640" y="40" as="sourcePoint" />
            <mxPoint x="500" as="targetPoint" />
            <Array as="points">
              <mxPoint x="700" y="40" />
              <mxPoint x="710" y="40" />
              <mxPoint x="640" y="40" />
            </Array>
          </mxGeometry>
        </mxCell>
        <mxCell id="x-fcVKMWKXttZ8fuD8AK-5" value="" style="endArrow=none;html=1;rounded=0;labelBackgroundColor=#CCFF99;strokeColor=#00FFFF;strokeWidth=3;fontSize=16;fontColor=#CCFF99;entryX=0;entryY=0.5;entryDx=0;entryDy=0;exitX=0.502;exitY=0.395;exitDx=0;exitDy=0;exitPerimeter=0;" edge="1" parent="1" source="1MeRUyPHZE2vKVNbhPLM-14" target="x1FesTeXJccqb-TsKIUG-6">
          <mxGeometry width="50" height="50" relative="1" as="geometry">
            <mxPoint x="720" y="-90" as="sourcePoint" />
            <mxPoint x="640" y="-100" as="targetPoint" />
            <Array as="points">
              <mxPoint x="720" y="40" />
              <mxPoint x="720" y="-360" />
              <mxPoint x="400" y="-360" />
            </Array>
          </mxGeometry>
        </mxCell>
        <mxCell id="x-fcVKMWKXttZ8fuD8AK-4" value="" style="endArrow=none;html=1;rounded=0;labelBackgroundColor=#CCFF99;strokeColor=#FF0000;strokeWidth=3;fontSize=16;fontColor=#CCFF99;entryX=0;entryY=0.5;entryDx=0;entryDy=0;" edge="1" parent="1" source="1MeRUyPHZE2vKVNbhPLM-14" target="x1FesTeXJccqb-TsKIUG-7">
          <mxGeometry width="50" height="50" relative="1" as="geometry">
            <mxPoint x="710" y="10" as="sourcePoint" />
            <mxPoint x="610" y="-120" as="targetPoint" />
            <Array as="points">
              <mxPoint x="720" y="40" />
              <mxPoint x="720" y="-360" />
              <mxPoint x="640" y="-360" />
            </Array>
          </mxGeometry>
        </mxCell>
        <mxCell id="x-fcVKMWKXttZ8fuD8AK-8" value="" style="endArrow=none;html=1;rounded=0;labelBackgroundColor=#CCFF99;strokeColor=#FFCCFF;strokeWidth=3;fontSize=16;fontColor=#CCFF99;entryX=0;entryY=0.5;entryDx=0;entryDy=0;" edge="1" parent="1" source="1MeRUyPHZE2vKVNbhPLM-14" target="vcQZig9gvm6AIhMloOI_-10">
          <mxGeometry width="50" height="50" relative="1" as="geometry">
            <mxPoint x="590" y="-110" as="sourcePoint" />
            <mxPoint x="640" y="-160" as="targetPoint" />
            <Array as="points">
              <mxPoint x="720" y="40" />
              <mxPoint x="720" y="-280" />
            </Array>
          </mxGeometry>
        </mxCell>
        <mxCell id="x-fcVKMWKXttZ8fuD8AK-14" value="" style="endArrow=none;html=1;rounded=0;labelBackgroundColor=#CCFF99;strokeColor=#990000;strokeWidth=3;fontSize=16;fontColor=#CCFF99;exitX=0.5;exitY=1;exitDx=0;exitDy=0;" edge="1" parent="1" source="bhAYxdVpt6L1nIL8nZjy-8">
          <mxGeometry width="50" height="50" relative="1" as="geometry">
            <mxPoint x="-130" y="40" as="sourcePoint" />
            <mxPoint x="-320" y="240" as="targetPoint" />
            <Array as="points">
              <mxPoint x="-80" y="-360" />
              <mxPoint x="-320" y="-360" />
            </Array>
          </mxGeometry>
        </mxCell>
        <mxCell id="x-fcVKMWKXttZ8fuD8AK-13" value="" style="endArrow=none;html=1;rounded=0;labelBackgroundColor=#CCFF99;strokeColor=#00FF00;strokeWidth=3;fontSize=16;fontColor=#CCFF99;entryX=0.5;entryY=1;entryDx=0;entryDy=0;" edge="1" parent="1" target="bhAYxdVpt6L1nIL8nZjy-7">
          <mxGeometry width="50" height="50" relative="1" as="geometry">
            <mxPoint x="-320" y="241.25" as="sourcePoint" />
            <mxPoint x="150" y="-10" as="targetPoint" />
            <Array as="points">
              <mxPoint x="-320" y="-360" />
              <mxPoint x="-80" y="-360" />
            </Array>
          </mxGeometry>
        </mxCell>
        <mxCell id="x-fcVKMWKXttZ8fuD8AK-16" value="" style="endArrow=none;html=1;rounded=0;labelBackgroundColor=#CCFF99;strokeColor=#00FF80;strokeWidth=3;fontSize=16;fontColor=#CCFF99;entryX=0;entryY=0.5;entryDx=0;entryDy=0;exitX=1;exitY=0;exitDx=0;exitDy=0;" edge="1" parent="1" source="vcQZig9gvm6AIhMloOI_-4" target="bhAYxdVpt6L1nIL8nZjy-9">
          <mxGeometry width="50" height="50" relative="1" as="geometry">
            <mxPoint x="40" y="-10" as="sourcePoint" />
            <mxPoint x="90" y="-60" as="targetPoint" />
            <Array as="points">
              <mxPoint x="-320" y="-360" />
            </Array>
          </mxGeometry>
        </mxCell>
        <mxCell id="x-fcVKMWKXttZ8fuD8AK-12" value="" style="endArrow=none;html=1;rounded=0;labelBackgroundColor=#CCFF99;strokeColor=#0000FF;strokeWidth=3;fontSize=16;fontColor=#CCFF99;entryX=0.5;entryY=1;entryDx=0;entryDy=0;" edge="1" parent="1" target="bhAYxdVpt6L1nIL8nZjy-6">
          <mxGeometry width="50" height="50" relative="1" as="geometry">
            <mxPoint x="-320" y="240" as="sourcePoint" />
            <mxPoint x="280" y="-90" as="targetPoint" />
            <Array as="points">
              <mxPoint x="-320" y="-360" />
              <mxPoint x="-80" y="-360" />
            </Array>
          </mxGeometry>
        </mxCell>
        <mxCell id="x-fcVKMWKXttZ8fuD8AK-11" value="" style="endArrow=none;html=1;rounded=0;labelBackgroundColor=#CCFF99;strokeColor=#FFFF99;strokeWidth=3;fontSize=16;fontColor=#CCFF99;entryX=0.5;entryY=1;entryDx=0;entryDy=0;exitX=1;exitY=0;exitDx=0;exitDy=0;" edge="1" parent="1" source="vcQZig9gvm6AIhMloOI_-4" target="bhAYxdVpt6L1nIL8nZjy-1">
          <mxGeometry width="50" height="50" relative="1" as="geometry">
            <mxPoint x="-300" y="260" as="sourcePoint" />
            <mxPoint x="-300" y="60" as="targetPoint" />
          </mxGeometry>
        </mxCell>
        <mxCell id="x-fcVKMWKXttZ8fuD8AK-10" value="" style="endArrow=none;html=1;rounded=0;labelBackgroundColor=#CCFF99;strokeColor=#CCFFFF;strokeWidth=3;fontSize=16;fontColor=#CCFF99;entryX=0.5;entryY=1;entryDx=0;entryDy=0;" edge="1" parent="1" target="bhAYxdVpt6L1nIL8nZjy-2">
          <mxGeometry width="50" height="50" relative="1" as="geometry">
            <mxPoint x="-320" y="240" as="sourcePoint" />
            <mxPoint x="-350" y="-110" as="targetPoint" />
          </mxGeometry>
        </mxCell>
        <mxCell id="x-fcVKMWKXttZ8fuD8AK-9" value="" style="endArrow=none;html=1;rounded=0;labelBackgroundColor=#CCFF99;strokeColor=#FFCCFF;strokeWidth=3;fontSize=16;fontColor=#CCFF99;entryX=0.5;entryY=1;entryDx=0;entryDy=0;" edge="1" parent="1" target="bhAYxdVpt6L1nIL8nZjy-3">
          <mxGeometry width="50" height="50" relative="1" as="geometry">
            <mxPoint x="-320" y="240" as="sourcePoint" />
            <mxPoint x="290" y="-20" as="targetPoint" />
          </mxGeometry>
        </mxCell>
        <mxCell id="x-fcVKMWKXttZ8fuD8AK-18" value="" style="endArrow=none;html=1;rounded=0;labelBackgroundColor=#CCFF99;strokeColor=#99FFCC;strokeWidth=3;fontSize=16;fontColor=#CCFF99;" edge="1" parent="1">
          <mxGeometry width="50" height="50" relative="1" as="geometry">
            <mxPoint x="-200" y="240" as="sourcePoint" />
            <mxPoint x="710" y="40" as="targetPoint" />
            <Array as="points">
              <mxPoint x="710" y="240" />
            </Array>
          </mxGeometry>
        </mxCell>
        <mxCell id="x-fcVKMWKXttZ8fuD8AK-19" value="" style="endArrow=none;html=1;rounded=0;labelBackgroundColor=#CCFF99;strokeColor=#999900;strokeWidth=3;fontSize=16;fontColor=#CCFF99;" edge="1" parent="1" source="1MeRUyPHZE2vKVNbhPLM-16">
          <mxGeometry width="50" height="50" relative="1" as="geometry">
            <mxPoint x="-20" y="200" as="sourcePoint" />
            <mxPoint x="-200" y="240" as="targetPoint" />
          </mxGeometry>
        </mxCell>
        <mxCell id="CppJW4C5AGQnAGEK48dT-1" value="router" style="text;html=1;strokeColor=none;fillColor=none;align=center;verticalAlign=middle;whiteSpace=wrap;rounded=0;labelBackgroundColor=#FFFFFF;fontSize=9;rotation=0;" vertex="1" parent="1">
          <mxGeometry x="-230" y="250" width="30" height="20" as="geometry" />
        </mxCell>
        <mxCell id="n9iLmzwunMnaZ45dFvC7-1" value="" style="endArrow=none;html=1;rounded=0;labelBackgroundColor=#CCFF99;strokeColor=#006600;strokeWidth=3;fontSize=9;fontColor=#CCFF99;exitX=0.5;exitY=1;exitDx=0;exitDy=0;entryX=0.586;entryY=0.743;entryDx=0;entryDy=0;entryPerimeter=0;" edge="1" parent="1" source="x1FesTeXJccqb-TsKIUG-9" target="1MeRUyPHZE2vKVNbhPLM-16">
          <mxGeometry width="50" height="50" relative="1" as="geometry">
            <mxPoint x="250" y="160" as="sourcePoint" />
            <mxPoint x="300" y="110" as="targetPoint" />
            <Array as="points">
              <mxPoint x="-320" y="440" />
            </Array>
          </mxGeometry>
        </mxCell>
        <mxCell id="CppJW4C5AGQnAGEK48dT-2" value="" style="endArrow=none;html=1;rounded=0;labelBackgroundColor=#CCFF99;strokeColor=#33FFFF;strokeWidth=3;fontSize=9;fontColor=#CCFF99;entryX=1;entryY=1;entryDx=0;entryDy=0;exitX=0;exitY=0;exitDx=0;exitDy=0;" edge="1" parent="1" source="BH-3Je2HWM4BqBeMA67B-1" target="bhAYxdVpt6L1nIL8nZjy-13">
          <mxGeometry width="50" height="50" relative="1" as="geometry">
            <mxPoint x="-140" y="190" as="sourcePoint" />
            <mxPoint x="-70" y="230" as="targetPoint" />
            <Array as="points">
              <mxPoint x="-200" y="440" />
            </Array>
          </mxGeometry>
        </mxCell>
        <mxCell id="EHmiGx8u_iwy5XrNuwgf-3" value="10 &amp;nbsp;м" style="text;html=1;strokeColor=none;fillColor=none;align=center;verticalAlign=middle;whiteSpace=wrap;rounded=0;labelBackgroundColor=#FFFFFF;fontSize=33;fontColor=#000000;" vertex="1" parent="1">
          <mxGeometry x="1151" y="60" width="90" height="30" as="geometry" />
        </mxCell>
        <mxCell id="EHmiGx8u_iwy5XrNuwgf-4" value="18 м" style="text;html=1;align=center;verticalAlign=middle;resizable=0;points=[];autosize=1;strokeColor=none;fillColor=none;fontSize=33;fontColor=#000000;" vertex="1" parent="1">
          <mxGeometry x="355" y="450" width="90" height="50" as="geometry" />
        </mxCell>
      </root>
    </mxGraphModel>
  </diagram>
</mxfile>
